<svg width="24" height="24" viewBox="0 0 24 24" fill="none" xmlns="http://www.w3.org/2000/svg">
<path d="M3.9 0C2.86566 0 1.87368 0.410892 1.14228 1.14228C0.410892 1.87368 0 2.86566 0 3.9V17.7C0 18.7343 0.410892 19.7263 1.14228 20.4577C1.87368 21.1891 2.86566 21.6 3.9 21.6H10.8264C10.4667 21.039 10.1808 20.434 9.9756 19.8H3.9C3.34305 19.8 2.8089 19.5788 2.41508 19.1849C2.02125 18.7911 1.8 18.257 1.8 17.7V3.9C1.8 2.7408 2.7408 1.8 3.9 1.8H17.7C18.8592 1.8 19.8 2.7408 19.8 3.9V9.9756C20.434 10.1808 21.039 10.4667 21.6 10.8264V3.9C21.6 2.86566 21.1891 1.87368 20.4577 1.14228C19.7263 0.410892 18.7343 0 17.7 0H3.9ZM17.4 9.6C17.5824 9.6 17.7624 9.606 17.9424 9.618C17.9942 9.48176 18.012 9.33498 17.9944 9.1903C17.9768 9.04563 17.9243 8.9074 17.8414 8.78753C17.7585 8.66767 17.6477 8.56976 17.5185 8.50225C17.3894 8.43474 17.2457 8.39964 17.1 8.4H11.7C11.4613 8.4 11.2324 8.49482 11.0636 8.6636C10.8948 8.83239 10.8 9.06131 10.8 9.3C10.8 9.5387 10.8948 9.76761 11.0636 9.9364C11.2324 10.1052 11.4613 10.2 11.7 10.2H14.3952C15.3471 9.80269 16.3685 9.59873 17.4 9.6ZM4.5 3.6C4.26131 3.6 4.03239 3.69482 3.8636 3.8636C3.69482 4.03239 3.6 4.26131 3.6 4.5C3.6 4.7387 3.69482 4.96761 3.8636 5.1364C4.03239 5.30518 4.26131 5.4 4.5 5.4H17.1C17.3387 5.4 17.5676 5.30518 17.7364 5.1364C17.9052 4.96761 18 4.7387 18 4.5C18 4.26131 17.9052 4.03239 17.7364 3.8636C17.5676 3.69482 17.3387 3.6 17.1 3.6H4.5ZM3.6 9.3C3.6 8.94543 3.66984 8.59433 3.80553 8.26675C3.94121 7.93918 4.14009 7.64153 4.39081 7.39081C4.64153 7.14009 4.93918 6.94121 5.26676 6.80553C5.59433 6.66984 5.94543 6.6 6.3 6.6C6.65457 6.6 7.00567 6.66984 7.33325 6.80553C7.66083 6.94121 7.95847 7.14009 8.20919 7.39081C8.45991 7.64153 8.65879 7.93918 8.79447 8.26675C8.93016 8.59433 9 8.94543 9 9.3C9 10.0161 8.71554 10.7028 8.20919 11.2092C7.70284 11.7155 7.01608 12 6.3 12C5.58392 12 4.89716 11.7155 4.39081 11.2092C3.88446 10.7028 3.6 10.0161 3.6 9.3ZM6.3 8.4C6.06131 8.4 5.83239 8.49482 5.6636 8.6636C5.49482 8.83239 5.4 9.06131 5.4 9.3C5.4 9.5387 5.49482 9.76761 5.6636 9.9364C5.83239 10.1052 6.06131 10.2 6.3 10.2C6.5387 10.2 6.76761 10.1052 6.9364 9.9364C7.10518 9.76761 7.2 9.5387 7.2 9.3C7.2 9.06131 7.10518 8.83239 6.9364 8.6636C6.76761 8.49482 6.5387 8.4 6.3 8.4ZM6.3 13.2C5.58392 13.2 4.89716 13.4845 4.39081 13.9908C3.88446 14.4972 3.6 15.1839 3.6 15.9C3.6 16.6161 3.88446 17.3028 4.39081 17.8092C4.89716 18.3155 5.58392 18.6 6.3 18.6C7.01608 18.6 7.70284 18.3155 8.20919 17.8092C8.71554 17.3028 9 16.6161 9 15.9C9 15.1839 8.71554 14.4972 8.20919 13.9908C7.70284 13.4845 7.01608 13.2 6.3 13.2ZM5.4 15.9C5.4 15.6613 5.49482 15.4324 5.6636 15.2636C5.83239 15.0948 6.06131 15 6.3 15C6.5387 15 6.76761 15.0948 6.9364 15.2636C7.10518 15.4324 7.2 15.6613 7.2 15.9C7.2 16.1387 7.10518 16.3676 6.9364 16.5364C6.76761 16.7052 6.5387 16.8 6.3 16.8C6.06131 16.8 5.83239 16.7052 5.6636 16.5364C5.49482 16.3676 5.4 16.1387 5.4 15.9ZM24 17.4C24 15.6496 23.3046 13.9708 22.0669 12.7331C20.8292 11.4954 19.1504 10.8 17.4 10.8C15.6496 10.8 13.9708 11.4954 12.7331 12.7331C11.4954 13.9708 10.8 15.6496 10.8 17.4C10.8 19.1504 11.4954 20.8292 12.7331 22.0669C13.9708 23.3046 15.6496 24 17.4 24C19.1504 24 20.8292 23.3046 22.0669 22.0669C23.3046 20.8292 24 19.1504 24 17.4ZM18 18L18.0012 21.0036C18.0012 21.1627 17.938 21.3153 17.8255 21.4279C17.7129 21.5404 17.5603 21.6036 17.4012 21.6036C17.2421 21.6036 17.0895 21.5404 16.9769 21.4279C16.8644 21.3153 16.8012 21.1627 16.8012 21.0036V18H13.7952C13.6361 18 13.4835 17.9368 13.3709 17.8243C13.2584 17.7117 13.1952 17.5591 13.1952 17.4C13.1952 17.2409 13.2584 17.0883 13.3709 16.9757C13.4835 16.8632 13.6361 16.8 13.7952 16.8H16.8V13.8C16.8 13.6409 16.8632 13.4883 16.9757 13.3757C17.0883 13.2632 17.2409 13.2 17.4 13.2C17.5591 13.2 17.7117 13.2632 17.8243 13.3757C17.9368 13.4883 18 13.6409 18 13.8V16.8H20.9964C21.1555 16.8 21.3081 16.8632 21.4207 16.9757C21.5332 17.0883 21.5964 17.2409 21.5964 17.4C21.5964 17.5591 21.5332 17.7117 21.4207 17.8243C21.3081 17.9368 21.1555 18 20.9964 18H18Z" fill="white"/>
</svg>
