<svg width="24" height="24" viewBox="0 0 24 24" fill="none" xmlns="http://www.w3.org/2000/svg">
<path d="M0 2.25C0 1.65326 0.237053 1.08097 0.65901 0.65901C1.08097 0.237053 1.65326 0 2.25 0H3.75C4.34674 0 4.91903 0.237053 5.34099 0.65901C5.76295 1.08097 6 1.65326 6 2.25V3.75C6 4.34674 5.76295 4.91903 5.34099 5.34099C4.91903 5.76295 4.34674 6 3.75 6H2.25C1.65326 6 1.08097 5.76295 0.65901 5.34099C0.237053 4.91903 0 4.34674 0 3.75V2.25ZM2.25 1.5C2.05109 1.5 1.86032 1.57902 1.71967 1.71967C1.57902 1.86032 1.5 2.05109 1.5 2.25V3.75C1.5 3.94891 1.57902 4.13968 1.71967 4.28033C1.86032 4.42098 2.05109 4.5 2.25 4.5H3.75C3.94891 4.5 4.13968 4.42098 4.28033 4.28033C4.42098 4.13968 4.5 3.94891 4.5 3.75V2.25C4.5 2.05109 4.42098 1.86032 4.28033 1.71967C4.13968 1.57902 3.94891 1.5 3.75 1.5H2.25ZM0 11.25C0 10.6533 0.237053 10.081 0.65901 9.65901C1.08097 9.23705 1.65326 9 2.25 9H3.75C4.34674 9 4.91903 9.23705 5.34099 9.65901C5.76295 10.081 6 10.6533 6 11.25V12.75C6 13.3467 5.76295 13.919 5.34099 14.341C4.91903 14.7629 4.34674 15 3.75 15H2.25C1.65326 15 1.08097 14.7629 0.65901 14.341C0.237053 13.919 0 13.3467 0 12.75V11.25ZM2.25 10.5C2.05109 10.5 1.86032 10.579 1.71967 10.7197C1.57902 10.8603 1.5 11.0511 1.5 11.25V12.75C1.5 12.9489 1.57902 13.1397 1.71967 13.2803C1.86032 13.421 2.05109 13.5 2.25 13.5H3.75C3.94891 13.5 4.13968 13.421 4.28033 13.2803C4.42098 13.1397 4.5 12.9489 4.5 12.75V11.25C4.5 11.0511 4.42098 10.8603 4.28033 10.7197C4.13968 10.579 3.94891 10.5 3.75 10.5H2.25ZM0 20.25C0 19.6533 0.237053 19.081 0.65901 18.659C1.08097 18.2371 1.65326 18 2.25 18H3.75C4.34674 18 4.91903 18.2371 5.34099 18.659C5.76295 19.081 6 19.6533 6 20.25V21.75C6 22.3467 5.76295 22.919 5.34099 23.341C4.91903 23.7629 4.34674 24 3.75 24H2.25C1.65326 24 1.08097 23.7629 0.65901 23.341C0.237053 22.919 0 22.3467 0 21.75V20.25ZM2.25 19.5C2.05109 19.5 1.86032 19.579 1.71967 19.7197C1.57902 19.8603 1.5 20.0511 1.5 20.25V21.75C1.5 21.9489 1.57902 22.1397 1.71967 22.2803C1.86032 22.421 2.05109 22.5 2.25 22.5H3.75C3.94891 22.5 4.13968 22.421 4.28033 22.2803C4.42098 22.1397 4.5 21.9489 4.5 21.75V20.25C4.5 20.0511 4.42098 19.8603 4.28033 19.7197C4.13968 19.579 3.94891 19.5 3.75 19.5H2.25ZM9 3.75C9 3.55109 9.07902 3.36032 9.21967 3.21967C9.36032 3.07902 9.55109 3 9.75 3H23.25C23.4489 3 23.6397 3.07902 23.7803 3.21967C23.921 3.36032 24 3.55109 24 3.75C24 3.94891 23.921 4.13968 23.7803 4.28033C23.6397 4.42098 23.4489 4.5 23.25 4.5H9.75C9.55109 4.5 9.36032 4.42098 9.21967 4.28033C9.07902 4.13968 9 3.94891 9 3.75ZM9 12.75C9 12.5511 9.07902 12.3603 9.21967 12.2197C9.36032 12.079 9.55109 12 9.75 12H23.25C23.4489 12 23.6397 12.079 23.7803 12.2197C23.921 12.3603 24 12.5511 24 12.75C24 12.9489 23.921 13.1397 23.7803 13.2803C23.6397 13.421 23.4489 13.5 23.25 13.5H9.75C9.55109 13.5 9.36032 13.421 9.21967 13.2803C9.07902 13.1397 9 12.9489 9 12.75ZM9 21.75C9 21.5511 9.07902 21.3603 9.21967 21.2197C9.36032 21.079 9.55109 21 9.75 21H23.25C23.4489 21 23.6397 21.079 23.7803 21.2197C23.921 21.3603 24 21.5511 24 21.75C24 21.9489 23.921 22.1397 23.7803 22.2803C23.6397 22.421 23.4489 22.5 23.25 22.5H9.75C9.55109 22.5 9.36032 22.421 9.21967 22.2803C9.07902 22.1397 9 21.9489 9 21.75Z" fill="white"/>
</svg>
